<svg xmlns="http://www.w3.org/2000/svg" version="1.1" xmlns:xlink="http://www.w3.org/1999/xlink" xmlns:svgjs="http://svgjs.dev/svgjs" width="1000" height="1125" viewBox="0 0 1000 1125"><g transform="matrix(1,0,0,1,0,0)"><svg viewBox="0 0 320 360" data-background-color="#d498ca" preserveAspectRatio="xMidYMid meet" height="1125" width="1000" xmlns="http://www.w3.org/2000/svg" xmlns:xlink="http://www.w3.org/1999/xlink"><g id="tight-bounds" transform="matrix(1,0,0,1,0,0)"><svg viewBox="0 0 320 360" height="360" width="320"><g><svg></svg></g><g><svg viewBox="0 0 320 360" height="360" width="320"><g><path transform="translate(-25.80645,-5.80645) scale(10.32258,10.32258)" d="M18 33.5c8.55 0 15.5-6.95 15.5-15.5 0-8.55-6.95-15.5-15.5-15.5-8.55 0-15.5 6.95-15.5 15.5 0 8.55 6.95 15.5 15.5 15.5zM18.5 32.47v-1c7.04-0.26 12.71-5.93 12.97-12.97h1c-0.26 7.6-6.37 13.71-13.97 13.97zM18.5 3.53c7.6 0.26 13.71 6.37 13.97 13.97h-1c-0.26-7.04-5.93-12.71-12.97-12.97zM30.5 18c0 6.89-5.61 12.5-12.5 12.5-6.89 0-12.5-5.61-12.5-12.5 0-6.89 5.61-12.5 12.5-12.5 6.89 0 12.5 5.61 12.5 12.5zM17.5 3.53v1c-7.04 0.26-12.71 5.93-12.97 12.97h-1c0.26-7.6 6.37-13.71 13.97-13.97zM4.53 18.5c0.26 7.04 5.93 12.71 12.97 12.97v1c-7.6-0.26-13.71-6.37-13.97-13.97z" fill="#ffccea" fill-rule="nonzero" stroke="none" stroke-width="1" stroke-linecap="butt" stroke-linejoin="miter" stroke-miterlimit="10" stroke-dasharray="" stroke-dashoffset="0" font-family="none" font-weight="none" font-size="none" text-anchor="none" style="mix-blend-mode: normal" data-fill-palette-color="tertiary"></path></g><g transform="matrix(1,0,0,1,71.18827844581794,90)"><svg viewBox="0 0 177.6234431083641 180" height="180" width="177.6234431083641"><g><svg viewBox="0 0 192.95999999999995 195.5417561566481" height="180" width="177.6234431083641"><g><rect width="192.95999999999995" height="4.076005531443535" x="0" y="135.59754307037642" fill="#c53683" opacity="1" stroke-width="0" stroke="transparent" fill-opacity="1" class="rect-qz-0" data-fill-palette-color="secondary" rx="1%" id="qz-0" data-palette-color="#c53683"></rect></g><g transform="matrix(1,0,0,1,0.47999999999998977,150.34372015010146)"><svg viewBox="0 0 191.99999999999997 45.198036006546644" height="45.198036006546644" width="191.99999999999997"><g id="textblocktransform"><svg viewBox="0 0 191.99999999999997 45.198036006546644" height="45.198036006546644" width="191.99999999999997" id="textblock"><g><svg viewBox="0 0 191.99999999999997 45.198036006546644" height="45.198036006546644" width="191.99999999999997"><g transform="matrix(1,0,0,1,0,0)"><svg width="191.99999999999997" viewBox="4.35 -42.3 183.29 43.15" height="45.198036006546644" data-palette-color="#ffccea"><path d="M19.15-37.9Q33.1-37.9 33.1-25.6L33.1-25.6Q33.1-19.6 29.6-16.48 26.1-13.35 19.15-13.35L19.15-13.35 12.3-13.35 12.3 0 4.35 0 4.35-37.9 19.15-37.9ZM25.05-25.6Q25.05-28.5 23.6-29.83 22.15-31.15 19.15-31.15L19.15-31.15 12.3-31.15 12.3-20.15 19.15-20.15Q22.1-20.15 23.55-21.48 25-22.8 25.05-25.6L25.05-25.6ZM46.45 0.65Q38.1 0.65 38.1-6.65L38.1-6.65 38.1-42.3 45.8-42.3 45.8-9.35Q45.8-7.55 46.37-6.88 46.95-6.2 48.45-6.2L48.45-6.2Q50-6.2 51.3-6.6L51.3-6.6 51.3 0.05Q48.4 0.65 46.45 0.65L46.45 0.65ZM66.7-28.15Q71.95-28.15 74.65-26.68 77.34-25.2 78.25-22.75 79.15-20.3 79.15-16.5L79.15-16.5 79.15 0 71.45 0 71.45-2.4Q69.65-0.75 67.92-0.05 66.2 0.65 64.09 0.65L64.09 0.65Q59.5 0.65 56.8-1.88 54.09-4.4 54.09-8.85L54.09-8.85Q54.09-13.4 56.87-15.85 59.65-18.3 64.55-18.3L64.55-18.3Q68.5-18.3 71.45-16.8L71.45-16.8Q71.4-18.45 71-19.43 70.59-20.4 69.42-20.93 68.25-21.45 65.95-21.45L65.95-21.45 60.75-21.45 60.75-28.15 66.7-28.15ZM65.65-5.4Q68.45-5.4 71.45-7.9L71.45-7.9 71.45-11.45Q68.84-12.7 66.3-12.7L66.3-12.7Q64.3-12.7 63.09-11.8 61.9-10.9 61.9-8.95L61.9-8.95Q61.9-5.4 65.65-5.4L65.65-5.4ZM96.29 0.85Q92.84 0.85 90.22 0.3 87.59-0.25 84.74-1.6L84.74-1.6 84.74-8.5Q87.49-6.95 90.32-6.28 93.14-5.6 96.29-5.6L96.29-5.6Q100.04-5.6 100.04-8.1L100.04-8.1Q100.04-9.1 99.44-9.65 98.84-10.2 97.54-10.5L97.54-10.5 93.09-11.45Q89.04-12.3 87.09-14.3 85.14-16.3 85.14-19.85L85.14-19.85Q85.14-28.95 96.54-28.95L96.54-28.95Q101.24-28.95 106.54-27.15L106.54-27.15 106.54-20.5Q104.59-21.4 102.02-21.95 99.44-22.5 96.89-22.5L96.89-22.5Q94.69-22.5 93.82-21.95 92.94-21.4 92.94-20.35L92.94-20.35Q92.94-19.45 93.49-19.03 94.04-18.6 95.24-18.3L95.24-18.3 99.69-17.35Q103.94-16.5 105.89-14.5 107.84-12.5 107.84-8.5L107.84-8.5Q107.84-3.85 104.72-1.5 101.59 0.85 96.29 0.85L96.29 0.85ZM147.19-28.75Q152.54-28.75 155.14-25.95 157.74-23.15 157.74-16.9L157.74-16.9 157.74 0 150.04 0 150.04-16.9Q150.04-19.4 149.04-20.63 148.04-21.85 145.59-21.85L145.59-21.85Q142.59-21.85 139.49-19.15L139.49-19.15Q139.59-17.75 139.59-16.9L139.59-16.9 139.59 0 131.89 0 131.89-16.9Q131.89-19.4 130.89-20.63 129.89-21.85 127.44-21.85L127.44-21.85Q124.44-21.85 121.44-19.25L121.44-19.25 121.44 0 113.74 0 113.74-28.15 121.44-28.15 121.44-25.75Q123.29-27.3 125.12-28.03 126.94-28.75 129.04-28.75L129.04-28.75Q135.69-28.75 138.09-24.35L138.09-24.35Q140.34-26.6 142.52-27.68 144.69-28.75 147.19-28.75L147.19-28.75ZM175.19-28.15Q180.44-28.15 183.14-26.68 185.84-25.2 186.74-22.75 187.64-20.3 187.64-16.5L187.64-16.5 187.64 0 179.94 0 179.94-2.4Q178.14-0.75 176.41-0.05 174.69 0.65 172.59 0.65L172.59 0.65Q167.99 0.65 165.29-1.88 162.59-4.4 162.59-8.85L162.59-8.85Q162.59-13.4 165.36-15.85 168.14-18.3 173.04-18.3L173.04-18.3Q176.99-18.3 179.94-16.8L179.94-16.8Q179.89-18.45 179.49-19.43 179.09-20.4 177.91-20.93 176.74-21.45 174.44-21.45L174.44-21.45 169.24-21.45 169.24-28.15 175.19-28.15ZM174.14-5.4Q176.94-5.4 179.94-7.9L179.94-7.9 179.94-11.45Q177.34-12.7 174.79-12.7L174.79-12.7Q172.79-12.7 171.59-11.8 170.39-10.9 170.39-8.95L170.39-8.95Q170.39-5.4 174.14-5.4L174.14-5.4Z" opacity="1" transform="matrix(1,0,0,1,0,0)" fill="#ffccea" class="wordmark-text-0" data-fill-palette-color="primary" id="text-0"></path></svg></g></svg></g></svg></g></svg></g><g transform="matrix(1,0,0,1,21.554622398877697,0)"><svg viewBox="0 0 149.85075520224456 124.92737152209492" height="124.92737152209492" width="149.85075520224456"><g><svg xmlns="http://www.w3.org/2000/svg" xmlns:xlink="http://www.w3.org/1999/xlink" version="1.1" x="8" y="0" viewBox="5 6 30 28" enable-background="new 0 0 40 40" xml:space="preserve" height="124.92737152209492" width="133.85075520224456" class="icon-icon-0" data-fill-palette-color="accent" id="icon-0"><path fill-rule="evenodd" clip-rule="evenodd" d="M34 10.9L34 10.9c0.6-0.2 1-0.8 1-1.4C35 8.7 34.3 8 33.5 8 32.7 8 32 8.7 32 9.5c0 0.7 0.4 1.2 1 1.4h0v5.3c-0.1 0-0.2-0.1-0.3-0.1C31.3 10.3 26.2 6 20 6 13.8 6 8.7 10.3 7.3 16.1 6 16.4 5 17.6 5 19c0 1.4 1 2.6 2.3 2.9 0.5 2 1.4 3.8 2.7 5.4V30c0 0 2 4 10 4s10-4 10-4v-2.7c1.3-1.5 2.2-3.4 2.7-5.4C34 21.6 35 20.4 35 19c0-0.9-0.4-1.7-1-2.2V10.9zM31.1 21.9c-0.5 2-1.5 3.7-2.9 5.1-2.1 2.2-5 3.5-8.2 3.5-3.2 0-6.2-1.3-8.2-3.5-1.4-1.4-2.4-3.2-2.9-5.1C8.6 20.9 8.5 20 8.5 19c0-1 0.1-1.9 0.4-2.9 1.3-5 5.8-8.6 11.1-8.6 5.4 0 9.9 3.7 11.1 8.6 0.2 0.9 0.4 1.9 0.4 2.9C31.5 20 31.4 20.9 31.1 21.9zM20 10c-5 0-9 4-9 9 0 0.9 0.1 1.7 0.4 2.5 2-1.7 5.4-3.7 10.1-3.7-4.5 1.8-7.3 4.5-8.8 6.4C14.3 26.5 17 28 20 28c5 0 9-4 9-9C29 14 25 10 20 10z" fill="#d13364" data-fill-palette-color="accent"></path></svg></g></svg></g><g></g></svg></g></svg></g></svg></g><defs></defs></svg><rect width="320" height="360" fill="none" stroke="none" visibility="hidden"></rect></g></svg></g></svg>